<svg width="120" height="120" viewBox="0 0 120 120" fill="none" xmlns="http://www.w3.org/2000/svg">
<path d="M99.0474 92.4017H97.6143V55.0281C100.85 52.9458 103 49.3148 103 45.1888C103 44.9696 102.943 44.7541 102.834 44.5638L92.8377 27.0702C92.1356 25.8419 90.8206 25.0786 89.4058 25.0786H30.5942C29.1794 25.0786 27.8644 25.8417 27.1623 27.0702L17.166 44.5638C17.0573 44.7541 17 44.9698 17 45.1888C17 49.3148 19.1497 52.9458 22.3857 55.0281V92.4017H20.9526C20.2569 92.4017 19.6929 92.9657 19.6929 93.6614C19.6929 94.3572 20.2569 94.9212 20.9526 94.9212H99.0474C99.7433 94.9212 100.307 94.3572 100.307 93.6614C100.307 92.9657 99.7431 92.4017 99.0474 92.4017ZM19.6064 46.4486H23.645C24.3407 46.4486 24.9048 45.8846 24.9048 45.1888C24.9048 44.4931 24.3407 43.9291 23.645 43.9291H20.4306L29.3499 28.3202C29.6045 27.8748 30.0812 27.5981 30.5942 27.5981H89.4058C89.9188 27.5981 90.3956 27.8748 90.6501 28.3202L99.5692 43.9291H96.3541C95.6583 43.9291 95.0944 44.4931 95.0944 45.1888C95.0944 45.8846 95.6583 46.4486 96.3541 46.4486H100.393C99.7775 50.9139 95.9369 54.3641 91.305 54.3641C86.6733 54.3641 82.8345 50.9136 82.2184 46.4486H90.9689C91.6648 46.4486 92.2287 45.8846 92.2287 45.1888C92.2287 44.4931 91.6648 43.9291 90.9689 43.9291H29.0318C28.336 43.9291 27.772 44.4931 27.772 45.1888C27.772 45.8846 28.336 46.4486 29.0318 46.4486H37.7814C37.1653 50.9136 33.3264 54.3641 28.6948 54.3641C24.0629 54.3641 20.2223 50.9139 19.6064 46.4486ZM79.5217 46.4486C78.9056 50.9136 75.0666 54.3641 70.4351 54.3641C65.8033 54.3641 61.9646 50.9136 61.3485 46.4486H79.5217ZM58.6515 46.4486C58.0354 50.9136 54.1965 54.3641 49.5649 54.3641C44.9334 54.3641 41.0944 50.9136 40.4783 46.4486H58.6515ZM88.3622 92.4018H74.7243V88.189H88.3622V92.4018ZM88.3622 85.6695H74.7243V62.6062H88.3622V85.6695ZM95.0947 92.4018H90.8819V61.3464C90.8819 60.6507 90.318 60.0867 89.6221 60.0867H73.4647C72.7688 60.0867 72.2049 60.6507 72.2049 61.3464V92.4017H24.9053V56.2499C26.0947 56.6586 27.3685 56.8837 28.6948 56.8837C33.2459 56.8837 37.1981 54.2707 39.1299 50.4661C41.0617 54.2706 45.0138 56.8837 49.5649 56.8837C54.1161 56.8837 58.0682 54.2707 60 50.4661C61.9318 54.2706 65.8839 56.8837 70.4351 56.8837C74.9862 56.8837 78.9383 54.2707 80.8701 50.4661C82.8019 54.2706 86.7541 56.8837 91.3052 56.8837C92.6315 56.8837 93.9053 56.6586 95.0947 56.2501V92.4018Z" fill="white"/>
<path d="M66.7324 60.0867H30.3779C29.6822 60.0867 29.1182 60.6507 29.1182 61.3464V86.9293C29.1182 87.625 29.6822 88.189 30.3779 88.189H66.7324C67.4283 88.189 67.9922 87.625 67.9922 86.9293V61.3464C67.9922 60.6505 67.4283 60.0867 66.7324 60.0867ZM65.4726 85.6695H31.6377V62.6062H65.4726V85.6695Z" fill="white"/>
</svg>
