<svg width="120" height="120" viewBox="0 0 120 120" fill="none" xmlns="http://www.w3.org/2000/svg">
<path d="M74.0578 43.5449C73.1829 43.5449 72.4727 44.2519 72.4727 45.1263C72.4727 46.0002 73.1829 46.7084 74.0578 46.7084C74.9346 46.7084 75.6429 46.0002 75.6429 45.1263C75.6429 44.2519 74.9346 43.5449 74.0578 43.5449Z" fill="white"/>
<path d="M45.2568 72.2891C44.38 72.2891 43.6716 72.9979 43.6716 73.8711C43.6716 74.7462 44.38 75.4531 45.2568 75.4531C46.1317 75.4531 46.8419 74.7462 46.8419 73.8711C46.8419 72.9979 46.1317 72.2891 45.2568 72.2891Z" fill="white"/>
<path d="M98.2657 28.7325C97.7308 28.6083 97.1685 28.7696 96.7822 29.1589L90.2107 35.7694H87.0603L83.5922 32.1833V28.9951L90.0695 22.434C90.4528 22.0459 90.6088 21.4879 90.4819 20.9571C90.3556 20.4268 89.9643 19.9992 89.4466 19.8249C87.8194 19.2774 86.1166 18.9999 84.3847 18.9999C79.2219 18.9999 74.5316 21.4026 71.5161 25.5919C68.6938 29.5136 67.8239 34.3197 69.0703 38.9193L57.3942 50.5726L37.9417 31.1136V27.2945C37.9417 26.7389 37.6495 26.2235 37.1721 25.938L25.9641 19.2255C25.34 18.8516 24.5418 18.9498 24.0279 19.4634L19.545 23.937C19.031 24.4505 18.9326 25.2471 19.3066 25.87L26.031 37.0561C26.3171 37.5325 26.8328 37.8236 27.3895 37.8242L31.2149 37.8255L50.6692 57.2845L39.0377 68.8932C34.4291 67.6499 29.6112 68.5194 25.6799 71.338C21.4849 74.3457 19.0793 79.0257 19.0793 84.1784C19.0793 85.9063 19.3574 87.6063 19.906 89.2298C20.0812 89.7495 20.514 90.1419 21.049 90.2655C21.5846 90.3897 22.1462 90.2284 22.5332 89.8391L29.104 83.2292H32.2718L35.8811 86.8314V89.993L29.2582 96.551C28.8681 96.9372 28.7065 97.4978 28.831 98.0323C28.9548 98.5662 29.348 98.9982 29.8687 99.1731C31.4954 99.7206 33.1987 99.9981 34.93 99.9981C40.0928 99.9981 44.7813 97.5966 47.7955 93.4098C50.6197 89.4862 51.4909 84.6783 50.2451 80.0787L59.5868 70.7552L61.7267 73.0751L60.7447 74.0546C60.1255 74.6726 60.1255 75.6744 60.7447 76.2923C61.3639 76.9097 62.3669 76.9097 62.9868 76.2923L63.8759 75.4049L83.9538 97.1715C83.9686 97.1875 83.9841 97.203 83.9996 97.2184C87.7147 100.926 93.7339 100.928 97.4509 97.2178C101.157 93.5167 101.157 87.4945 97.4509 83.7934C97.4348 83.7773 97.4181 83.7619 97.4014 83.7464L75.5582 63.7461L76.4374 62.8685C77.0566 62.2512 77.0566 61.2494 76.4374 60.6315C75.8182 60.0135 74.8152 60.0135 74.1953 60.6315L73.2201 61.6054L70.8913 59.4721L80.2783 50.1035C81.6126 50.4595 82.9897 50.6399 84.3847 50.6399C93.1252 50.6399 100.235 43.543 100.235 34.8202C100.235 33.0917 99.9574 31.3923 99.4088 29.7682C99.2335 29.2485 98.8007 28.8561 98.2657 28.7325V28.7325ZM32.9944 35.1261C32.6972 34.8289 32.2941 34.6775 31.8731 34.6775L28.2879 34.6762L22.662 25.3015L25.3945 22.5743L34.7715 28.1905V31.7686C34.7715 32.1876 34.9381 32.5893 35.2346 32.8859L55.1528 52.8103L52.9107 55.0474L32.9944 35.1261ZM73.3142 65.9856L95.2317 86.0534C97.68 88.5228 97.6726 92.5211 95.2088 94.9813C92.7395 97.4458 88.742 97.4533 86.2627 95.003L66.1192 73.1654L73.3142 65.9856ZM70.9762 63.8443L63.97 70.8356L61.8301 68.5157L68.6474 61.7111L70.9762 63.8443ZM84.3847 47.4759C82.9984 47.4759 81.6349 47.254 80.3334 46.8165C79.7631 46.6255 79.1328 46.7726 78.7068 47.1972C70.7601 55.1283 53.637 72.2174 47.3318 78.5109C46.9058 78.9361 46.7578 79.5652 46.9503 80.1349C48.268 84.04 47.6376 88.2052 45.2203 91.5639C42.8098 94.9127 39.0588 96.834 34.93 96.834C34.4662 96.834 34.0049 96.8087 33.548 96.7599L38.5826 91.774C38.8823 91.4774 39.0513 91.0732 39.0513 90.6511V86.1757C39.0513 85.7561 38.8842 85.3538 38.5869 85.0572L34.0489 80.528C33.7517 80.2314 33.3486 80.0645 32.9282 80.0645H28.444C28.0211 80.0645 27.6161 80.2332 27.3183 80.5323L22.3233 85.5571C22.2737 85.101 22.249 84.6407 22.249 84.1778C22.249 80.0565 24.1734 76.3134 27.5294 73.9075C30.8941 71.495 35.0681 70.8652 38.9814 72.1809C39.5516 72.3731 40.182 72.2254 40.608 71.8002C40.6953 71.7137 71.9607 40.5087 71.983 40.4865C72.409 40.0613 72.5563 39.4328 72.3644 38.8631C71.0461 34.958 71.6752 30.7941 74.0907 27.4378C76.5031 24.0859 80.2547 22.164 84.3841 22.164C84.8621 22.164 85.3371 22.1905 85.8076 22.2425L80.8776 27.2364C80.5854 27.5324 80.4219 27.931 80.4219 28.3463V32.8217C80.4219 33.232 80.5811 33.6257 80.8665 33.9204L85.246 38.4496C85.5445 38.7586 85.9562 38.9329 86.3866 38.9329H90.8708C91.293 38.9329 91.698 38.7648 91.9958 38.4651L96.9908 33.4409C97.0404 33.897 97.0651 34.3574 97.0651 34.8202C97.0651 41.7985 91.3766 47.4759 84.3847 47.4759V47.4759Z" fill="white"/>
<path d="M68.454 48.482L48.6182 68.2791C47.9997 68.8964 47.9997 69.8982 48.6182 70.5162C49.2374 71.1341 50.2411 71.1341 50.8603 70.5162L70.6961 50.7191C71.3153 50.1018 71.3153 49.1 70.6961 48.482C70.0769 47.8641 69.0732 47.8641 68.454 48.482V48.482Z" fill="white"/>
<path d="M88.485 90.5079C89.1042 91.1241 90.1079 91.1241 90.7271 90.5042C91.345 89.8856 91.3431 88.8839 90.7233 88.2671L76.4355 74.053C75.8157 73.4362 74.8114 73.4381 74.194 74.0567C73.5755 74.6759 73.5773 75.677 74.1971 76.2938L88.485 90.5079Z" fill="white"/>
</svg>
