<svg width="40" height="40" viewBox="0 0 40 40" fill="none" xmlns="http://www.w3.org/2000/svg">
<rect x="9" y="9" width="22" height="22" rx="2" stroke="white" stroke-width="2"/>
<path d="M23.9567 19.4133C24.0801 20.2455 23.938 21.0955 23.5505 21.8423C23.163 22.5891 22.5499 23.1947 21.7984 23.5729C21.0468 23.9512 20.1952 24.0829 19.3645 23.9492C18.5339 23.8155 17.7665 23.4233 17.1716 22.8284C16.5767 22.2335 16.1845 21.4661 16.0508 20.6355C15.9171 19.8048 16.0488 18.9532 16.4271 18.2016C16.8053 17.4501 17.4109 16.837 18.1577 16.4495C18.9045 16.062 19.7545 15.9199 20.5867 16.0433C21.4357 16.1692 22.2216 16.5647 22.8284 17.1716C23.4353 17.7784 23.8308 18.5643 23.9567 19.4133Z" stroke="white" stroke-width="2" stroke-linecap="round" stroke-linejoin="round"/>
<circle cx="27" cy="13" r="0.5" stroke="white"/>
</svg>
