<svg width="120" height="120" viewBox="0 0 120 120" fill="none" xmlns="http://www.w3.org/2000/svg">
<path d="M25.8774 97.6008C26.7065 97.747 27.4967 97.1957 27.6438 96.3676C27.7912 95.5392 27.2389 94.7483 26.4106 94.6012C17.5084 93.0186 11.0469 85.2958 11.0469 76.2382C11.0469 65.9535 19.4139 57.5865 29.6986 57.5865C32.1515 57.5865 34.4952 58.0634 36.6425 58.9279L35.7128 60.789C33.8468 60.06 31.8196 59.6553 29.6986 59.6553C20.5548 59.6553 13.1159 67.0942 13.1159 76.2382C13.1159 85.3819 20.5548 92.8208 29.6986 92.8208C38.3284 92.8208 45.4364 86.1936 46.2083 77.7616H48.2861C47.6083 86.1497 41.3851 93.1082 32.9866 94.6012C32.1583 94.7485 31.6059 95.5392 31.7534 96.3676C31.8846 97.106 32.5269 97.6245 33.2515 97.6245C33.34 97.6245 33.4298 97.6168 33.5198 97.6008C42.054 96.0836 48.6556 89.7168 50.7183 81.6295C51.6694 82.5064 52.8518 83.1355 54.1625 83.4136V86.5269H52.828C51.9865 86.5269 51.3046 87.2088 51.3046 88.0504C51.3046 88.8919 51.9865 89.5738 52.828 89.5738H58.544C59.3855 89.5738 60.0674 88.8919 60.0674 88.0504C60.0674 87.2088 59.3855 86.5269 58.544 86.5269H57.2096V83.4136C60.5257 82.7102 63.0217 79.7606 63.0217 76.238C63.0217 74.5963 62.4796 73.0789 61.5651 71.8555L79.5849 51.8969L81.3023 56.4955C73.8167 59.9212 68.6028 67.482 68.6028 76.238C68.6028 88.2025 78.3368 97.9365 90.3014 97.9365C102.266 97.9365 112 88.2025 112 76.238C112 64.2734 102.266 54.5394 90.3014 54.5394C88.1676 54.5394 86.1052 54.8506 84.1558 55.4272L78.9405 41.4621H87.6689C88.271 42.9279 89.7123 43.9636 91.3924 43.9636C91.7184 43.9636 91.9837 44.2289 91.9837 44.5549C91.9837 44.8809 91.7184 45.1462 91.3924 45.1462H89.5381C87.3187 45.1462 85.5131 46.952 85.5131 49.1712C85.5131 51.3903 87.3189 53.1959 89.5381 53.1959H91.3924C96.1573 53.1959 100.034 49.3194 100.034 44.5547C100.034 39.79 96.1573 35.9135 91.3924 35.9135C89.7123 35.9135 88.271 36.9492 87.6689 38.4148H76.7453C75.7037 38.4148 74.942 39.4601 75.3182 40.4712L76.8634 44.6087H45.7943L44.8244 42.0116C45.4423 41.6281 45.9682 41.0942 46.3391 40.4418C46.5831 40.0122 47.0417 39.7451 47.5362 39.7451H54.0143C55.8071 39.7451 57.0285 37.9265 56.3531 36.2671L56.3529 36.2669C55.312 33.7126 52.8571 32.062 50.0986 32.062H34.4914C32.4099 32.062 30.7167 33.7555 30.7167 35.8369C30.7167 39.6102 33.7865 42.68 37.56 42.68H41.8216L43.0779 46.0442L38.0079 56.1938C35.4473 55.1282 32.6407 54.5388 29.6988 54.5388C17.734 54.5396 8 64.2736 8 76.2382C8 86.7751 15.5185 95.7594 25.8774 97.6008V97.6008ZM90.3014 57.5865C100.586 57.5865 108.953 65.9535 108.953 76.2382C108.953 86.5229 100.586 94.8898 90.3014 94.8898C80.0167 94.8898 71.6497 86.5229 71.6497 76.2382C71.6497 68.7877 76.0413 62.3445 82.3715 59.3588L83.0979 61.3037C77.5524 63.9894 73.719 69.6743 73.719 76.2382C73.719 85.3819 81.1579 92.8208 90.3016 92.8208C97.9835 92.8208 104.61 87.611 106.416 80.1514C106.614 79.3338 106.111 78.5103 105.294 78.3123C104.476 78.1136 103.653 78.6168 103.454 79.4344C101.981 85.5221 96.5719 89.7737 90.3016 89.7737C82.8381 89.7737 76.7659 83.7014 76.7659 76.238C76.7659 70.9804 79.7809 66.4168 84.1708 64.1763L87.4205 72.8778C86.4737 73.6908 85.872 74.8951 85.872 76.2382C85.872 78.6806 87.859 80.6677 90.3016 80.6677C92.7442 80.6677 94.7314 78.6808 94.7314 76.2382C94.7314 73.7956 92.7442 71.8086 90.3016 71.8086C90.2923 71.8086 90.2831 71.8092 90.274 71.8092L87.0238 63.1056C88.0739 62.8434 89.1714 62.702 90.3018 62.702C96.5721 62.702 101.981 66.9539 103.455 73.0416C103.653 73.8589 104.476 74.3615 105.294 74.1636C106.112 73.9656 106.614 73.1423 106.416 72.3245C104.61 64.8647 97.9834 59.6549 90.3018 59.6549C88.7968 59.6549 87.3398 59.8601 85.9529 60.2375L85.2251 58.2883C86.8391 57.8315 88.5421 57.5865 90.3014 57.5865V57.5865ZM90.3014 74.8557C91.0639 74.8557 91.6843 75.476 91.6843 76.2384C91.6843 77.0007 91.0639 77.621 90.3014 77.621C89.5391 77.621 88.9187 77.0007 88.9187 76.2384C88.9187 75.476 89.5391 74.8557 90.3014 74.8557ZM39.3666 60.2929C44.3393 63.3193 47.7915 68.6057 48.2877 74.7149H46.2083C45.723 69.4147 42.7346 64.8298 38.4371 62.1536L39.3666 60.2929ZM33.8582 74.7147C33.6494 74.1466 33.3264 73.6333 32.9188 73.2012L37.0686 64.8935C40.3739 67.0483 42.6839 70.6049 43.1464 74.7147H33.8582ZM29.6986 74.8557C30.4609 74.8557 31.0813 75.476 31.0813 76.2384C31.0813 77.0007 30.4609 77.621 29.6986 77.621C28.9361 77.621 28.3157 77.0007 28.3157 76.2384C28.3157 75.476 28.9361 74.8557 29.6986 74.8557ZM29.6986 89.7739C22.2351 89.7739 16.1628 83.7016 16.1628 76.2382C16.1628 68.7745 22.2351 62.7022 29.6986 62.7022C31.3307 62.7022 32.8962 62.9927 34.3463 63.5245L30.1938 71.837C30.0311 71.8187 29.866 71.8086 29.6986 71.8086C27.2562 71.8086 25.2688 73.7956 25.2688 76.2382C25.2688 78.6808 27.256 80.6677 29.6986 80.6677C31.6059 80.6677 33.2356 79.4559 33.8582 77.7616H43.1464C42.3865 84.5103 36.6469 89.7739 29.6986 89.7739V89.7739ZM57.2096 80.2424V76.2382C57.2096 75.3966 56.5278 74.7147 55.6862 74.7147C54.8446 74.7147 54.1627 75.3966 54.1627 76.2382V80.2424C52.5487 79.6261 51.3974 78.0661 51.3974 76.2382C51.3974 73.8734 53.3214 71.9496 55.6862 71.9496C58.051 71.9496 59.9748 73.8736 59.9748 76.2382C59.9748 78.0661 58.8235 79.6261 57.2096 80.2424ZM91.3924 38.961C94.4773 38.961 96.9869 41.4704 96.9869 44.5553C96.9869 47.6402 94.4773 50.1496 91.3924 50.1496H89.5381C88.9988 50.1496 88.56 49.7109 88.56 49.1718C88.56 48.6325 88.9988 48.1937 89.5381 48.1937H91.3924C93.3985 48.1937 95.0306 46.5616 95.0306 44.5555C95.0306 42.5494 93.3985 40.9173 91.3924 40.9173C90.8531 40.9173 90.4143 40.4786 90.4143 39.9393C90.4143 39.3998 90.8531 38.961 91.3924 38.961ZM78.0011 47.6562L78.3838 48.6808L59.2761 69.8446C58.2141 69.2459 56.9899 68.9027 55.6864 68.9027C55.415 68.9027 55.1475 68.9185 54.8836 68.9475L46.9325 47.6564H78.0011V47.6562ZM33.7634 35.8377C33.7634 35.4361 34.0898 35.1097 34.4912 35.1097H50.0984C51.3348 35.1097 52.4601 35.714 53.1422 36.699H47.5359C45.9479 36.699 44.4742 37.5568 43.6897 38.9372C43.4456 39.367 42.9867 39.6342 42.4923 39.6342H37.5596C35.4666 39.634 33.7634 37.9309 33.7634 35.8377V35.8377ZM44.535 49.9467L51.9891 69.9065C51.5321 70.1744 51.1063 70.4895 50.7191 70.8464C49.2733 65.2129 45.6156 60.4573 40.7316 57.5611L44.535 49.9467Z" fill="white"/>
</svg>
