<svg width="1200" height="920" viewBox="0 0 1200 920" fill="none" xmlns="http://www.w3.org/2000/svg">
<path d="M40.5159 401V32.0234H173.053C220.527 32.0234 256.597 40.7241 281.263 58.1255C306.098 75.5269 318.515 100.784 318.515 133.897C318.515 152.988 314.123 169.292 305.338 182.807C296.552 196.323 283.628 206.291 266.565 212.71C285.824 217.779 300.607 227.24 310.913 241.093C321.219 254.947 326.371 271.841 326.371 291.777C326.371 327.931 314.883 355.131 291.906 373.377C269.099 391.455 235.225 400.662 190.286 401H40.5159ZM129.466 244.134V332.577H187.752C203.802 332.577 216.135 328.945 224.751 321.68C233.367 314.247 237.675 303.856 237.675 290.51C237.675 259.762 222.385 244.303 191.806 244.134H129.466ZM129.466 185.848H175.841C195.27 185.679 209.123 182.131 217.402 175.205C225.68 168.278 229.819 158.057 229.819 144.541C229.819 128.998 225.342 117.848 216.388 111.09C207.434 104.163 192.989 100.7 173.053 100.7H129.466V185.848Z" fill="#1B1B1F"/>
<path d="M473.513 401H384.816V32.0234H473.513V401Z" fill="#1B1B1F"/>
<path d="M853.073 276.065C851.891 301.745 844.964 324.468 832.293 344.234C819.622 363.832 801.798 379.037 778.822 389.85C756.014 400.662 729.912 406.068 700.516 406.068C652.028 406.068 613.847 390.272 585.971 358.679C558.095 327.086 544.157 282.485 544.157 224.875V206.628C544.157 170.474 550.408 138.881 562.91 111.85C575.58 84.6499 593.742 63.7007 617.394 49.0024C641.047 34.1353 668.416 26.7017 699.502 26.7017C744.272 26.7017 780.258 38.5278 807.458 62.1802C834.658 85.6636 850.117 118.101 853.833 159.493H765.137C764.461 137.023 758.802 120.889 748.158 111.09C737.515 101.291 721.296 96.3916 699.502 96.3916C677.37 96.3916 661.151 104.67 650.846 121.227C640.54 137.783 635.134 164.223 634.627 200.546V226.648C634.627 266.013 639.526 294.142 649.325 311.037C659.293 327.931 676.356 336.378 700.516 336.378C720.958 336.378 736.585 331.563 747.398 321.934C758.21 312.304 763.954 297.014 764.63 276.065H853.073Z" fill="#1B1B1F"/>
<path d="M1023.41 192.184L1091.33 32.0234H1187.37L1068.52 268.462V401H978.304V268.462L859.704 32.0234H955.243L1023.41 192.184Z" fill="#1B1B1F"/>
<path d="M326.706 746.639C325.566 771.378 318.893 793.27 306.686 812.312C294.479 831.193 277.308 845.841 255.173 856.258C233.2 866.674 208.053 871.883 179.733 871.883C133.021 871.883 96.2371 856.665 69.3816 826.229C42.5261 795.792 29.0984 752.824 29.0984 697.322V679.744C29.0984 644.913 35.1205 614.477 47.1648 588.436C59.3718 562.231 76.8686 542.049 99.655 527.889C122.441 513.566 148.809 506.404 178.757 506.404C221.888 506.404 256.556 517.798 282.76 540.584C308.965 563.208 323.858 594.458 327.438 634.334H241.989C241.338 612.687 235.885 597.143 225.632 587.703C215.378 578.263 199.753 573.543 178.757 573.543C157.435 573.543 141.81 581.518 131.882 597.469C121.953 613.419 116.745 638.891 116.257 673.885V699.031C116.257 736.954 120.977 764.054 130.417 780.33C140.02 796.606 156.458 804.744 179.733 804.744C199.427 804.744 214.483 800.105 224.899 790.828C235.316 781.551 240.85 766.821 241.501 746.639H326.706Z" fill="#1B1B1F"/>
<path d="M448.127 801.082H597.296V867H362.433V511.531H448.127V801.082Z" fill="#1B1B1F"/>
<path d="M844.088 716.365H709.323V801.082H868.502V867H623.629V511.531H868.991V577.693H709.323V652.645H844.088V716.365Z" fill="#1B1B1F"/>
<path d="M1083.96 772.518C1083.96 759.985 1079.49 750.219 1070.54 743.221C1061.75 736.222 1046.2 728.979 1023.91 721.492C1001.61 714.005 983.378 706.762 969.218 699.764C923.157 677.14 900.126 646.053 900.126 606.502C900.126 586.808 905.823 569.474 917.216 554.5C928.772 539.363 945.048 527.645 966.044 519.344C987.04 510.88 1010.64 506.648 1036.84 506.648C1062.4 506.648 1085.27 511.206 1105.45 520.32C1125.79 529.435 1141.58 542.456 1152.81 559.383C1164.04 576.147 1169.66 595.353 1169.66 617H1084.21C1084.21 602.514 1079.73 591.284 1070.78 583.309C1061.99 575.333 1050.03 571.346 1034.89 571.346C1019.59 571.346 1007.47 574.764 998.515 581.6C989.726 588.273 985.331 596.818 985.331 607.234C985.331 616.349 990.214 624.65 999.98 632.137C1009.75 639.461 1026.92 647.111 1051.49 655.086C1076.07 662.898 1096.25 671.362 1112.04 680.477C1150.45 702.612 1169.66 733.13 1169.66 772.029C1169.66 803.117 1157.94 827.531 1134.5 845.271C1111.06 863.012 1078.92 871.883 1038.07 871.883C1009.26 871.883 983.134 866.756 959.696 856.502C936.422 846.085 918.844 831.925 906.962 814.021C895.243 795.955 889.384 775.203 889.384 751.766H975.321C975.321 770.809 980.204 784.887 989.97 794.002C999.898 802.954 1015.93 807.43 1038.07 807.43C1052.23 807.43 1063.37 804.419 1071.51 798.396C1079.81 792.212 1083.96 783.585 1083.96 772.518Z" fill="#1B1B1F"/>
</svg>
